P3
10 5 255
0 24 27
0 24 27
0 24 27
0 24 27
0 13 56
0 13 56
0 13 56
0 10 146
0 10 146
0 10 146
0 24 27
0 24 27
0 24 27
0 0 0
0 13 56
0 13 56
0 13 56
0 10 146
0 10 146
0 10 146
0 24 27
0 24 27
0 24 27
0 0 0
0 0 0
0 13 56
0 13 56
0 13 56
0 13 56
0 10 146
0 24 27
0 24 27
0 24 27
0 24 27
0 24 27
0 13 56
0 0 0
0 0 0
0 0 0
0 0 0
0 24 27
0 24 27
0 24 27
0 24 27
0 24 27
0 24 27
0 24 27
0 24 27
0 0 0
0 0 0
